<svg width="2000" height="1800" viewBox="-160 -50 1000 500 " fill="none" xmlns="http://www.w3.org/2000/svg">
<rect width="667" height="375" fill="#E5E5E5"/>
<rect width="667" height="375" fill="white"/>
<path fill-rule="evenodd" clip-rule="evenodd" d="M332.735 104L394.407 157.629C414.367 169.356 427 186.699 427 206.049C427 241.368 384.915 270 333 270C281.085 270 239 241.368 239 206.049C239 187.261 250.909 170.365 269.873 158.665L332.735 104Z" fill="#CBCBCB" stroke="black"/>
<path fill-rule="evenodd" clip-rule="evenodd" d="M332.5 225C332.5 225 340.213 224.65 344.39 222.125C348.566 219.6 354 212 354 212C354 212 340.018 218.5 332.5 218.5C324.982 218.5 311 212 311 212C311 212 317.028 219.863 320.769 222.125C324.51 224.387 332.5 225 332.5 225Z" fill="white" stroke="black"/>
<path fill-rule="evenodd" clip-rule="evenodd" d="M292.279 185L312.745 189.349C313.551 190.657 314 192.111 314 193.642C314 199.363 307.732 204 300 204C292.268 204 286 199.363 286 193.642C286 190.032 288.495 186.854 292.279 185Z" fill="white" stroke="black"/>
<path fill-rule="evenodd" clip-rule="evenodd" d="M373.721 185L353.255 189.349C352.449 190.657 352 192.111 352 193.642C352 199.363 358.268 204 366 204C373.732 204 380 199.363 380 193.642C380 190.032 377.505 186.854 373.721 185Z" fill="white" stroke="black"/>
<path fill-rule="evenodd" clip-rule="evenodd" d="M588 31C588 59.7188 611.281 83 640 83V292C611.281 292 588 315.281 588 344H79C79 315.281 55.7188 292 27 292V83C55.7188 83 79 59.7188 79 31H588Z" stroke="black"/>
<path fill-rule="evenodd" clip-rule="evenodd" d="M41.5 60C49.5081 60 56 53.5081 56 45.5C56 37.4919 49.5081 31 41.5 31C33.4919 31 27 37.4919 27 45.5C27 53.5081 33.4919 60 41.5 60Z" stroke="black"/>
<path fill-rule="evenodd" clip-rule="evenodd" d="M625.5 60C633.508 60 640 53.5081 640 45.5C640 37.4919 633.508 31 625.5 31C617.492 31 611 37.4919 611 45.5C611 53.5081 617.492 60 625.5 60Z" stroke="black"/>
<path fill-rule="evenodd" clip-rule="evenodd" d="M625.5 344C633.508 344 640 337.508 640 329.5C640 321.492 633.508 315 625.5 315C617.492 315 611 321.492 611 329.5C611 337.508 617.492 344 625.5 344Z" stroke="black"/>
<path fill-rule="evenodd" clip-rule="evenodd" d="M41.5 344C49.5081 344 56 337.508 56 329.5C56 321.492 49.5081 315 41.5 315C33.4919 315 27 321.492 27 329.5C27 337.508 33.4919 344 41.5 344Z" stroke="black"/>
<path fill-rule="evenodd" clip-rule="evenodd" d="M332.5 305C397.946 305 451 251.946 451 186.5C451 121.054 397.946 68 332.5 68C267.054 68 214 121.054 214 186.5C214 251.946 267.054 305 332.5 305Z" stroke="black"/>
<path fill-rule="evenodd" clip-rule="evenodd" d="M333.5 315C403.916 315 461 257.916 461 187.5C461 117.084 403.916 60 333.5 60C263.084 60 206 117.084 206 187.5C206 257.916 263.084 315 333.5 315Z" stroke="black"/>
</svg>
