<svg width="75" height="88" viewBox="0 0 75 88" fill="none" xmlns="http://www.w3.org/2000/svg">
<circle cx="36" cy="36" r="34.5" fill="white" stroke="black" stroke-width="3"/>
<path d="M51.9329 13H25.1494C21.2012 13 18 16.1574 18 20.0515V49.9412C18 53.6248 21.0945 56.6769 24.8293 56.6769H25.4695V60.992C25.4695 61.413 25.6829 61.7287 26.003 61.9392C26.3232 62.1497 26.75 62.1497 27.0701 61.9392L28.6707 60.992L30.2713 61.9392C30.4848 62.0444 30.5915 62.0444 30.8049 62.0444C31.0183 62.0444 31.125 62.0444 31.3384 61.9392C31.6585 61.7287 31.872 61.413 31.872 60.992V56.6769H51.7195C52.1463 56.6769 52.4665 56.4664 52.6799 56.1507C52.8933 55.8349 52.8933 55.414 52.6799 55.0982C50.2256 51.2041 50.2256 47.9415 52.7866 44.8894C52.8933 44.7842 52.8933 44.7842 52.8933 44.6789V44.5737C52.8933 44.4684 53 44.3632 53 44.2579C53 44.2579 53 44.2579 53 44.1527V14.0525C53 13.421 52.5732 13 51.9329 13ZM24.0823 15.2102V43.1002C22.5884 43.3107 21.3079 43.9422 20.1341 44.8894V20.0515C20.1341 17.6308 21.8415 15.7364 24.0823 15.2102ZM29.2043 58.7818C28.9909 58.6766 28.8841 58.6766 28.6707 58.6766C28.4573 58.6766 28.2439 58.6766 28.1372 58.7818L27.6037 59.0976V52.0461H29.7378V55.5192V58.9923L29.2043 58.7818ZM31.872 54.572V51.0989C31.872 50.4674 31.4451 50.0464 30.8049 50.0464H26.5366C25.8963 50.0464 25.4695 50.4674 25.4695 51.0989V54.572H24.8293C22.2683 54.572 20.1341 52.4671 20.1341 49.9412C20.1341 48.6782 20.6677 47.5205 21.5213 46.6786C22.4817 45.8366 23.6555 45.3104 24.8293 45.3104H49.9055C48.3049 48.0468 48.3049 51.2041 49.9055 54.572H31.872ZM26.2165 43.1002V15.1049H50.9726V43.1002H26.2165Z" fill="black"/>
<path d="M45.7439 34.3648L41.9024 30.576C42.7561 29.5235 43.3963 28.1554 43.3963 26.5767C43.3963 23.2088 40.6219 20.3672 37.1006 20.3672C33.5793 20.3672 30.8049 23.1036 30.8049 26.5767C30.8049 30.0498 33.5793 32.7862 37.1006 32.7862C38.2744 32.7862 39.3415 32.4704 40.3018 31.9442L44.3567 35.9435C44.5701 36.154 44.8902 36.2593 45.1037 36.2593C45.3171 36.2593 45.6372 36.154 45.8506 35.9435C46.1707 35.4173 46.1707 34.7858 45.7439 34.3648ZM32.939 26.5767C32.939 24.3665 34.753 22.4721 37.1006 22.4721C39.4482 22.4721 41.2622 24.2613 41.2622 26.5767C41.2622 28.8921 39.4482 30.6813 37.1006 30.6813C34.753 30.6813 32.939 28.8921 32.939 26.5767Z" fill="black"/>
<path d="M3.8125 76.3926H10.0879V77.4473H4.94922V80.0605H9.70117V81.0566H4.94922V83.9746H10.1758V85H3.8125V76.3926ZM11.5645 78.7246H12.5664V79.6152C12.8633 79.248 13.1777 78.9844 13.5098 78.8242C13.8418 78.6641 14.2109 78.584 14.6172 78.584C15.5078 78.584 16.1094 78.8945 16.4219 79.5156C16.5938 79.8555 16.6797 80.3418 16.6797 80.9746V85H15.6074V81.0449C15.6074 80.6621 15.5508 80.3535 15.4375 80.1191C15.25 79.7285 14.9102 79.5332 14.418 79.5332C14.168 79.5332 13.9629 79.5586 13.8027 79.6094C13.5137 79.6953 13.2598 79.8672 13.041 80.125C12.8652 80.332 12.75 80.5469 12.6953 80.7695C12.6445 80.9883 12.6191 81.3027 12.6191 81.7129V85H11.5645V78.7246ZM20.6641 78.543C21.3711 78.543 21.9453 78.7148 22.3867 79.0586C22.832 79.4023 23.0996 79.9941 23.1895 80.834H22.1641C22.1016 80.4473 21.959 80.127 21.7363 79.873C21.5137 79.6152 21.1562 79.4863 20.6641 79.4863C19.9922 79.4863 19.5117 79.8145 19.2227 80.4707C19.0352 80.8965 18.9414 81.4219 18.9414 82.0469C18.9414 82.6758 19.0742 83.2051 19.3398 83.6348C19.6055 84.0645 20.0234 84.2793 20.5938 84.2793C21.0312 84.2793 21.377 84.1465 21.6309 83.8809C21.8887 83.6113 22.0664 83.2441 22.1641 82.7793H23.1895C23.0723 83.6113 22.7793 84.2207 22.3105 84.6074C21.8418 84.9902 21.2422 85.1816 20.5117 85.1816C19.6914 85.1816 19.0371 84.8828 18.5488 84.2852C18.0605 83.6836 17.8164 82.9336 17.8164 82.0352C17.8164 80.9336 18.084 80.0762 18.6191 79.4629C19.1543 78.8496 19.8359 78.543 20.6641 78.543ZM28.1641 78.7246H29.3301C29.1816 79.127 28.8516 80.0449 28.3398 81.4785C27.957 82.5566 27.6367 83.4355 27.3789 84.1152C26.7695 85.7168 26.3398 86.6934 26.0898 87.0449C25.8398 87.3965 25.4102 87.5723 24.8008 87.5723C24.6523 87.5723 24.5371 87.5664 24.4551 87.5547C24.377 87.543 24.2793 87.5215 24.1621 87.4902V86.5293C24.3457 86.5801 24.4785 86.6113 24.5605 86.623C24.6426 86.6348 24.7148 86.6406 24.7773 86.6406C24.9727 86.6406 25.1152 86.6074 25.2051 86.541C25.2988 86.4785 25.377 86.4004 25.4395 86.3066C25.459 86.2754 25.5293 86.1152 25.6504 85.8262C25.7715 85.5371 25.8594 85.3223 25.9141 85.1816L23.5938 78.7246H24.7891L26.4707 83.834L28.1641 78.7246ZM32.6641 78.543C33.3711 78.543 33.9453 78.7148 34.3867 79.0586C34.832 79.4023 35.0996 79.9941 35.1895 80.834H34.1641C34.1016 80.4473 33.959 80.127 33.7363 79.873C33.5137 79.6152 33.1562 79.4863 32.6641 79.4863C31.9922 79.4863 31.5117 79.8145 31.2227 80.4707C31.0352 80.8965 30.9414 81.4219 30.9414 82.0469C30.9414 82.6758 31.0742 83.2051 31.3398 83.6348C31.6055 84.0645 32.0234 84.2793 32.5938 84.2793C33.0312 84.2793 33.377 84.1465 33.6309 83.8809C33.8887 83.6113 34.0664 83.2441 34.1641 82.7793H35.1895C35.0723 83.6113 34.7793 84.2207 34.3105 84.6074C33.8418 84.9902 33.2422 85.1816 32.5117 85.1816C31.6914 85.1816 31.0371 84.8828 30.5488 84.2852C30.0605 83.6836 29.8164 82.9336 29.8164 82.0352C29.8164 80.9336 30.084 80.0762 30.6191 79.4629C31.1543 78.8496 31.8359 78.543 32.6641 78.543ZM36.2734 76.3926H37.3281V85H36.2734V76.3926ZM41.4062 84.3203C42.1055 84.3203 42.584 84.0566 42.8418 83.5293C43.1035 82.998 43.2344 82.4082 43.2344 81.7598C43.2344 81.1738 43.1406 80.6973 42.9531 80.3301C42.6562 79.752 42.1445 79.4629 41.418 79.4629C40.7734 79.4629 40.3047 79.709 40.0117 80.2012C39.7188 80.6934 39.5723 81.2871 39.5723 81.9824C39.5723 82.6504 39.7188 83.207 40.0117 83.6523C40.3047 84.0977 40.7695 84.3203 41.4062 84.3203ZM41.4473 78.543C42.2559 78.543 42.9395 78.8125 43.498 79.3516C44.0566 79.8906 44.3359 80.6836 44.3359 81.7305C44.3359 82.7422 44.0898 83.5781 43.5977 84.2383C43.1055 84.8984 42.3418 85.2285 41.3066 85.2285C40.4434 85.2285 39.7578 84.9375 39.25 84.3555C38.7422 83.7695 38.4883 82.9844 38.4883 82C38.4883 80.9453 38.7559 80.1055 39.291 79.4805C39.8262 78.8555 40.5449 78.543 41.4473 78.543ZM48.2441 84.291C48.7363 84.291 49.1445 84.0859 49.4688 83.6758C49.7969 83.2617 49.9609 82.6445 49.9609 81.8242C49.9609 81.3242 49.8887 80.8945 49.7441 80.5352C49.4707 79.8438 48.9707 79.498 48.2441 79.498C47.5137 79.498 47.0137 79.8633 46.7441 80.5938C46.5996 80.9844 46.5273 81.4805 46.5273 82.082C46.5273 82.5664 46.5996 82.9785 46.7441 83.3184C47.0176 83.9668 47.5176 84.291 48.2441 84.291ZM45.5137 78.7539H46.5391V79.5859C46.75 79.3008 46.9805 79.0801 47.2305 78.9238C47.5859 78.6895 48.0039 78.5723 48.4844 78.5723C49.1953 78.5723 49.7988 78.8457 50.2949 79.3926C50.791 79.9355 51.0391 80.7129 51.0391 81.7246C51.0391 83.0918 50.6816 84.0684 49.9668 84.6543C49.5137 85.0254 48.9863 85.2109 48.3848 85.2109C47.9121 85.2109 47.5156 85.1074 47.1953 84.9004C47.0078 84.7832 46.7988 84.582 46.5684 84.2969V87.502H45.5137V78.7539ZM54.8887 78.584C55.334 78.584 55.7656 78.6895 56.1836 78.9004C56.6016 79.1074 56.9199 79.377 57.1387 79.709C57.3496 80.0254 57.4902 80.3945 57.5605 80.8164C57.623 81.1055 57.6543 81.5664 57.6543 82.1992H53.0547C53.0742 82.8359 53.2246 83.3477 53.5059 83.7344C53.7871 84.1172 54.2227 84.3086 54.8125 84.3086C55.3633 84.3086 55.8027 84.127 56.1309 83.7637C56.3184 83.5527 56.4512 83.3086 56.5293 83.0312H57.5664C57.5391 83.2617 57.4473 83.5195 57.291 83.8047C57.1387 84.0859 56.9668 84.3164 56.7754 84.4961C56.4551 84.8086 56.0586 85.0195 55.5859 85.1289C55.332 85.1914 55.0449 85.2227 54.7246 85.2227C53.9434 85.2227 53.2812 84.9395 52.7383 84.373C52.1953 83.8027 51.9238 83.0059 51.9238 81.9824C51.9238 80.9746 52.1973 80.1562 52.7441 79.5273C53.291 78.8984 54.0059 78.584 54.8887 78.584ZM56.5703 81.3613C56.5273 80.9043 56.4277 80.5391 56.2715 80.2656C55.9824 79.7578 55.5 79.5039 54.8242 79.5039C54.3398 79.5039 53.9336 79.6797 53.6055 80.0312C53.2773 80.3789 53.1035 80.8223 53.084 81.3613H56.5703ZM59.623 81.9355C59.623 82.6074 59.7656 83.1699 60.0508 83.623C60.3359 84.0762 60.793 84.3027 61.4219 84.3027C61.9102 84.3027 62.3105 84.0938 62.623 83.6758C62.9395 83.2539 63.0977 82.6504 63.0977 81.8652C63.0977 81.0723 62.9355 80.4863 62.6113 80.1074C62.2871 79.7246 61.8867 79.5332 61.4102 79.5332C60.8789 79.5332 60.4473 79.7363 60.1152 80.1426C59.7871 80.5488 59.623 81.1465 59.623 81.9355ZM61.2109 78.6133C61.6914 78.6133 62.0938 78.7148 62.418 78.918C62.6055 79.0352 62.8184 79.2402 63.0566 79.5332V76.3633H64.0703V85H63.1211V84.127C62.875 84.5137 62.584 84.793 62.248 84.9648C61.9121 85.1367 61.5273 85.2227 61.0938 85.2227C60.3945 85.2227 59.7891 84.9297 59.2773 84.3438C58.7656 83.7539 58.5098 82.9707 58.5098 81.9941C58.5098 81.0801 58.7422 80.2891 59.207 79.6211C59.6758 78.9492 60.3438 78.6133 61.2109 78.6133ZM65.6348 78.7539H66.707V85H65.6348V78.7539ZM65.6348 76.3926H66.707V77.5879H65.6348V76.3926ZM69.1152 83.3301C69.1152 83.6348 69.2266 83.875 69.4492 84.0508C69.6719 84.2266 69.9355 84.3145 70.2402 84.3145C70.6113 84.3145 70.9707 84.2285 71.3184 84.0566C71.9043 83.7715 72.1973 83.3047 72.1973 82.6562V81.8066C72.0684 81.8887 71.9023 81.957 71.6992 82.0117C71.4961 82.0664 71.2969 82.1055 71.1016 82.1289L70.4629 82.2109C70.0801 82.2617 69.793 82.3418 69.6016 82.4512C69.2773 82.6348 69.1152 82.9277 69.1152 83.3301ZM71.6699 81.1973C71.9121 81.166 72.0742 81.0645 72.1562 80.8926C72.2031 80.7988 72.2266 80.6641 72.2266 80.4883C72.2266 80.1289 72.0977 79.8691 71.8398 79.709C71.5859 79.5449 71.2207 79.4629 70.7441 79.4629C70.1934 79.4629 69.8027 79.6113 69.5723 79.9082C69.4434 80.0723 69.3594 80.3164 69.3203 80.6406H68.3359C68.3555 79.8672 68.6055 79.3301 69.0859 79.0293C69.5703 78.7246 70.1309 78.5723 70.7676 78.5723C71.5059 78.5723 72.1055 78.7129 72.5664 78.9941C73.0234 79.2754 73.252 79.7129 73.252 80.3066V83.9219C73.252 84.0312 73.2734 84.1191 73.3164 84.1855C73.3633 84.252 73.459 84.2852 73.6035 84.2852C73.6504 84.2852 73.7031 84.2832 73.7617 84.2793C73.8203 84.2715 73.8828 84.2617 73.9492 84.25V85.0293C73.7852 85.0762 73.6602 85.1055 73.5742 85.1172C73.4883 85.1289 73.3711 85.1348 73.2227 85.1348C72.8594 85.1348 72.5957 85.0059 72.4316 84.748C72.3457 84.6113 72.2852 84.418 72.25 84.168C72.0352 84.4492 71.7266 84.6934 71.3242 84.9004C70.9219 85.1074 70.4785 85.2109 69.9941 85.2109C69.4121 85.2109 68.9355 85.0352 68.5645 84.6836C68.1973 84.3281 68.0137 83.8848 68.0137 83.3535C68.0137 82.7715 68.1953 82.3203 68.5586 82C68.9219 81.6797 69.3984 81.4824 69.9883 81.4082L71.6699 81.1973Z" fill="black"/>
</svg>
