<svg width="73" height="90" viewBox="0 0 73 90" fill="none" xmlns="http://www.w3.org/2000/svg">
<g clip-path="url(#clip0)">
<path d="M54.5219 14.625H25.8922C21.6719 14.625 18.25 18 18.25 22.1625V54.1125C18.25 58.05 21.5578 61.3125 25.55 61.3125H26.2344V65.925C26.2344 66.375 26.4625 66.7125 26.8047 66.9375C27.1469 67.1625 27.6031 67.1625 27.9453 66.9375L29.6562 65.925L31.3672 66.9375C31.5953 67.05 31.7094 67.05 31.9375 67.05C32.1656 67.05 32.2797 67.05 32.5078 66.9375C32.85 66.7125 33.0781 66.375 33.0781 65.925V61.3125H54.2938C54.75 61.3125 55.0922 61.0875 55.3203 60.75C55.5484 60.4125 55.5484 59.9625 55.3203 59.625C52.6969 55.4625 52.6969 51.975 55.4344 48.7125C55.5484 48.6 55.5484 48.6 55.5484 48.4875V48.375C55.5484 48.2625 55.6625 48.15 55.6625 48.0375C55.6625 48.0375 55.6625 48.0375 55.6625 47.925V15.75C55.6625 15.075 55.2063 14.625 54.5219 14.625ZM24.7516 16.9875V46.8C23.1547 47.025 21.7859 47.7 20.5312 48.7125V22.1625C20.5312 19.575 22.3562 17.55 24.7516 16.9875ZM30.2266 63.5625C29.9984 63.45 29.8844 63.45 29.6562 63.45C29.4281 63.45 29.2 63.45 29.0859 63.5625L28.5156 63.9V56.3625H30.7969V60.075V63.7875L30.2266 63.5625ZM33.0781 59.0625V55.35C33.0781 54.675 32.6219 54.225 31.9375 54.225H27.375C26.6906 54.225 26.2344 54.675 26.2344 55.35V59.0625H25.55C22.8125 59.0625 20.5312 56.8125 20.5312 54.1125C20.5312 52.7625 21.1016 51.525 22.0141 50.625C23.0406 49.725 24.2953 49.1625 25.55 49.1625H52.3547C50.6437 52.0875 50.6437 55.4625 52.3547 59.0625H33.0781ZM27.0328 46.8V16.875H53.4953V46.8H27.0328Z" fill="black"/>
<path d="M47.9062 37.4625L43.8 33.4125C44.7125 32.2875 45.3969 30.825 45.3969 29.1375C45.3969 25.5375 42.4313 22.5 38.6672 22.5C34.9031 22.5 31.9375 25.425 31.9375 29.1375C31.9375 32.85 34.9031 35.775 38.6672 35.775C39.9219 35.775 41.0625 35.4375 42.0891 34.875L46.4234 39.15C46.6516 39.375 46.9938 39.4875 47.2219 39.4875C47.45 39.4875 47.7922 39.375 48.0203 39.15C48.3625 38.5875 48.3625 37.9125 47.9062 37.4625ZM34.2188 29.1375C34.2188 26.775 36.1578 24.75 38.6672 24.75C41.1766 24.75 43.1156 26.6625 43.1156 29.1375C43.1156 31.6125 41.1766 33.525 38.6672 33.525C36.1578 33.525 34.2188 31.6125 34.2188 29.1375Z" fill="black"/>
</g>
<defs>
<clipPath id="clip0">
<rect width="73" height="90" fill="white"/>
</clipPath>
</defs>
</svg>
