<svg width="103" height="117" viewBox="0 0 103 117" fill="none" xmlns="http://www.w3.org/2000/svg">
<path d="M1.5 28.2265L43.5 1.77274L85.5 28.2265V74.1851L43.5 97.288L1.5 74.1851V28.2265Z" fill="white" stroke="black" stroke-width="3"/>
<path fill-rule="evenodd" clip-rule="evenodd" d="M65.0626 58.5345C66.1038 61.4655 69.1408 64.6552 74 67.5C61.4182 60.2586 52.4808 65.431 58.7283 76.2069C52.4808 65.431 43.4566 70.5172 43.4566 85C43.4566 70.5172 34.5192 65.431 28.2717 76.2069C34.5192 65.431 25.5818 60.2586 13 67.5C17.8592 64.6552 20.8962 61.4655 21.9374 58.5345C22.8051 58.2759 24.2802 57.8448 25.1479 58.3621C24.8876 59.3103 24.4538 60.2586 23.9331 61.2069C26.8834 61.2069 29.5733 62.1552 31.4822 64.4828C32.3499 65.5172 32.7838 66.7241 33.0441 67.931C34.2589 67.5 35.4737 67.4138 36.862 67.5862C39.899 68.0172 41.9815 69.9138 43.4566 72.4138C44.9317 69.9138 47.101 68.0172 50.138 67.5862C51.4395 67.4138 52.7411 67.5 53.9559 67.931C54.1294 66.7241 54.6501 65.5172 55.5178 64.4828C57.4267 62.1552 60.1166 61.2069 63.0669 61.2069C62.5462 60.2586 62.1124 59.3103 61.8521 58.3621C62.7198 57.8448 64.1949 58.2759 65.0626 58.5345ZM39.2916 55.6035C34.8663 55.7759 29.3997 55.431 27.8378 50.5172C27.5775 49.7414 28.8791 49.3103 29.1394 50.0862C30.441 54.4828 35.734 54.3966 39.5519 54.3103C40.8535 54.3103 43.5434 53.0172 43.4566 51.4655C43.3698 48.2759 42.5889 44.4828 40.5932 41.8966C39.2048 40.0862 37.2959 38.9655 34.7795 39.0517C33.7383 39.0517 29.9203 40.6034 28.532 41.0345C23.1522 42.6724 18.7269 44.0517 17.7724 48.8793C17.7724 49.6552 16.3841 49.569 16.3841 48.8793C16.5576 48.0172 16.8179 47.2414 17.0782 46.4655L13.3471 46.5517V55.8621C13.8677 55.9483 14.4751 55.9483 14.9957 55.9483C15.5164 55.8621 16.037 55.8621 16.5576 55.7759C16.4708 55.2586 16.4708 55.7759 16.4708 55C16.4708 54.2241 17.7724 54.2241 17.7724 55.0862C17.7724 56.9828 18.4666 57.4138 19.4211 57.4138C20.0284 57.4138 20.8094 57.2414 21.5903 57.069C23.4125 56.6379 25.5818 56.2069 26.7098 57.8448C29.3129 61.6379 35.8208 61.2931 39.3784 60.2586C41.7212 59.6552 41.2873 55.6035 39.2916 55.6035ZM47.7084 55.6035C52.1337 55.7759 57.6003 55.431 59.1622 50.5172C59.4225 49.7414 58.1209 49.3103 57.8606 50.0862C56.4723 54.4828 51.266 54.3966 47.4481 54.3103C46.1465 54.3103 43.4566 53.0172 43.4566 51.4655C43.6302 48.2759 44.4111 44.4828 46.4068 41.8966C47.7952 40.0862 49.7041 38.9655 52.2205 39.0517C53.2617 39.0517 57.0797 40.6034 58.468 41.0345C63.8478 42.6724 68.2731 44.0517 69.2276 48.8793C69.2276 49.6552 70.6159 49.569 70.6159 48.8793C70.4424 48.0172 70.1821 47.2414 69.9218 46.4655L73.6529 46.5517V55.8621C73.1323 55.9483 72.5249 55.9483 72.0043 55.9483C71.4836 55.8621 70.963 55.8621 70.4424 55.7759C70.5292 55.2586 70.5292 55.7759 70.5292 55C70.5292 54.2241 69.2276 54.2241 69.2276 55.0862C69.2276 56.9828 68.5334 57.4138 67.5789 57.4138C66.9715 57.4138 66.1906 57.2414 65.4097 57.069C63.5875 56.6379 61.4182 56.2069 60.2902 57.8448C57.6871 61.6379 51.1792 61.2931 47.6216 60.2586C45.2788 59.6552 45.7127 55.6035 47.7084 55.6035ZM43.4566 15C43.4566 29.3966 52.4808 34.569 58.7283 23.7069C52.4808 34.569 61.4182 39.7414 74 32.5C68.9673 35.3448 65.9303 38.7931 64.889 41.8103C64.0213 41.3793 63.1536 41.0345 62.1991 40.6897C62.3727 40 62.7198 39.3966 63.0669 38.7931C60.1166 38.7069 57.4267 37.8448 55.5178 35.431C54.6501 34.3966 54.1294 33.2759 53.9559 32.069C52.7411 32.4138 51.4395 32.5862 50.138 32.4138C47.101 31.8966 44.9317 30.0862 43.4566 27.5862C41.9815 30.0862 39.899 31.8966 36.862 32.4138C35.4737 32.5862 34.2589 32.4138 33.0441 32.069C32.7838 33.2759 32.3499 34.3966 31.4822 35.431C29.5733 37.8448 26.8834 38.7069 23.9331 38.7931C24.2802 39.3966 24.6273 40 24.8009 40.6897C23.8464 41.0345 22.9787 41.3793 22.0242 41.8103C21.0697 38.7931 18.0327 35.3448 13 32.5C25.5818 39.7414 34.5192 34.569 28.2717 23.7069C34.5192 34.569 43.4566 29.3966 43.4566 15Z" fill="black"/>
<path d="M47.8208 100.296L53.0355 97.3883L53.5492 98.3095L49.3528 100.649L50.6256 102.932L54.3153 100.874L54.8147 101.77L51.125 103.827L53.0312 107.246L52.0129 107.814L47.8208 100.296ZM58.0928 102.511C58.2412 102.778 58.4554 102.933 58.7355 102.978C59.0156 103.023 59.2887 102.972 59.5548 102.823C59.8789 102.643 60.1509 102.392 60.3708 102.073C60.7437 101.539 60.7722 100.988 60.4564 100.422L60.0426 99.6798C59.97 99.8142 59.8583 99.9548 59.7075 100.101C59.5568 100.248 59.4018 100.379 59.2426 100.495L58.7248 100.878C58.4152 101.108 58.2034 101.318 58.0895 101.507C57.8958 101.825 57.8969 102.16 58.0928 102.511ZM59.2853 99.4044C59.4816 99.2592 59.5737 99.0915 59.5616 98.9015C59.5569 98.7968 59.5118 98.6676 59.4262 98.5141C59.2511 98.2002 59.012 98.0361 58.7089 98.0218C58.4072 98.0022 58.0483 98.1084 57.632 98.3405C57.151 98.6088 56.8821 98.9287 56.8254 99.3002C56.7927 99.5063 56.8383 99.7604 56.9621 100.063L56.1023 100.542C55.7427 99.857 55.6995 99.2661 55.9726 98.7694C56.2473 98.2674 56.6626 97.8614 57.2187 97.5513C57.8635 97.1917 58.4557 97.0225 58.9953 97.0436C59.5314 97.0667 59.9441 97.3375 60.2332 97.8561L61.994 101.014C62.0472 101.109 62.1088 101.175 62.1787 101.212C62.252 101.248 62.3517 101.23 62.478 101.16C62.5189 101.137 62.564 101.109 62.6133 101.077C62.6606 101.042 62.7105 101.003 62.7628 100.961L63.1423 101.641C63.0218 101.762 62.9269 101.848 62.8576 101.901C62.7882 101.953 62.6887 102.015 62.5591 102.087C62.2418 102.264 61.9488 102.28 61.6799 102.135C61.5383 102.057 61.3912 101.918 61.2387 101.716C61.1881 102.067 61.0375 102.43 60.7869 102.807C60.5363 103.184 60.1995 103.49 59.7765 103.726C59.2681 104.01 58.7663 104.088 58.271 103.962C57.7771 103.83 57.4009 103.532 57.1421 103.068C56.8587 102.56 56.7976 102.078 56.9589 101.621C57.1201 101.164 57.4403 100.76 57.9193 100.408L59.2853 99.4044ZM63.0026 94.2924C63.6201 93.9481 64.2053 93.8185 64.7582 93.9038C65.3146 93.9871 65.8365 94.3737 66.324 95.0634L65.4285 95.5628C65.1855 95.2555 64.905 95.0452 64.5869 94.9319C64.2668 94.8152 63.8919 94.8766 63.462 95.1164C62.8752 95.4436 62.6154 95.9642 62.6825 96.6781C62.7262 97.1413 62.9002 97.6458 63.2046 98.1917C63.5108 98.741 63.8846 99.1386 64.3259 99.3845C64.7672 99.6304 65.2368 99.6145 65.7349 99.3367C66.117 99.1236 66.3543 98.8393 66.4467 98.4836C66.5406 98.1226 66.517 97.7154 66.3759 97.2618L67.2714 96.7624C67.5743 97.5462 67.6152 98.2211 67.3942 98.7872C67.1712 99.3498 66.7407 99.809 66.1028 100.165C65.3863 100.564 64.6693 100.622 63.9518 100.338C63.2324 100.05 62.6539 99.514 62.2163 98.7294C61.6798 97.7673 61.4959 96.8881 61.6646 96.0918C61.8333 95.2956 62.2793 94.6958 63.0026 94.2924ZM68.4317 91.3119C68.8207 91.095 69.249 90.9769 69.7168 90.9576C70.1827 90.9348 70.592 91.0152 70.9448 91.1986C71.2831 91.3723 71.5857 91.6262 71.8526 91.9604C72.0479 92.1824 72.2997 92.5698 72.6079 93.1224L68.5907 95.3626C68.9179 95.9092 69.2984 96.2829 69.7324 96.4836C70.1645 96.681 70.6381 96.6361 71.1533 96.3488C71.6343 96.0805 71.9297 95.7079 72.0393 95.2308C72.1003 94.9552 72.0974 94.6773 72.0306 94.397L72.9364 93.8919C73.0248 94.1065 73.0701 94.3764 73.0726 94.7016C73.0765 95.0214 73.0386 95.3064 72.959 95.5566C72.8314 95.9855 72.5878 96.3628 72.2283 96.6885C72.037 96.8668 71.8014 97.0339 71.5217 97.1899C70.8394 97.5704 70.1232 97.6455 69.3731 97.4153C68.6211 97.1816 67.9959 96.6179 67.4974 95.724C67.0066 94.8438 66.8469 93.9959 67.0182 93.1803C67.1895 92.3647 67.6607 91.7419 68.4317 91.3119ZM71.2531 92.9186C70.993 92.5403 70.7281 92.2699 70.4585 92.1071C69.9587 91.8044 69.4137 91.8176 68.8235 92.1467C68.4004 92.3826 68.1312 92.734 68.0159 93.2009C67.8986 93.6643 67.9627 94.1362 68.2082 94.6165L71.2531 92.9186ZM72.9756 91.6763L75.5445 90.2438L76.0725 91.1905L73.5035 92.6231L72.9756 91.6763ZM80.4421 91.1824C81.0528 90.8419 81.3423 90.3785 81.3106 89.7924C81.2805 89.2009 81.1075 88.6221 80.7917 88.0557C80.5063 87.544 80.1923 87.1734 79.8498 86.944C79.3089 86.5837 78.7212 86.5805 78.0866 86.9343C77.5237 87.2482 77.2342 87.6914 77.218 88.264C77.2018 88.8366 77.3631 89.4265 77.7017 90.0337C78.027 90.6171 78.4261 91.032 78.8988 91.2782C79.3716 91.5244 79.886 91.4925 80.4421 91.1824ZM77.6642 86.1166C78.3704 85.7228 79.0987 85.6253 79.8491 85.824C80.5995 86.0228 81.2297 86.5793 81.7395 87.4936C82.2323 88.3773 82.4244 89.2272 82.3161 90.0435C82.2077 90.8598 81.7015 91.52 80.7974 92.0241C80.0435 92.4446 79.303 92.5243 78.576 92.2633C77.8471 91.9989 77.243 91.4368 76.7635 90.577C76.2499 89.6559 76.0745 88.7921 76.2375 87.9856C76.4005 87.1791 76.8761 86.5561 77.6642 86.1166ZM81.141 83.2923C80.9415 82.9025 80.8521 82.5857 80.8725 82.3417C80.9124 81.908 81.2395 81.5199 81.8536 81.1774C81.9115 81.1451 81.9722 81.1135 82.0355 81.0827C82.0988 81.0518 82.1716 81.018 82.2539 80.981L82.7219 81.8203C82.6226 81.8667 82.5507 81.9023 82.5064 81.9271C82.4635 81.9465 82.4233 81.9666 82.3858 81.9876C82.1061 82.1436 81.9798 82.3101 82.007 82.4873C82.0323 82.661 82.2105 83.0447 82.5415 83.6383L83.4524 83.1304L83.8577 83.8571L82.9365 84.3707L85.5733 89.0993L84.6624 89.6072L82.0256 84.8787L81.2631 85.3039L80.8579 84.5772L81.6204 84.152L81.141 83.2923ZM83.8737 81.7684C83.6743 81.3787 83.5848 81.0618 83.6053 80.8178C83.6452 80.3841 83.9722 79.996 84.5863 79.6536C84.6443 79.6212 84.7049 79.5896 84.7683 79.5588C84.8316 79.528 84.9044 79.4941 84.9866 79.4571L85.4546 80.2964C85.3553 80.3429 85.2835 80.3785 85.2391 80.4032C85.1963 80.4226 85.1561 80.4428 85.1186 80.4637C84.8388 80.6197 84.7125 80.7863 84.7398 80.9634C84.7651 81.1371 84.9432 81.5208 85.2743 82.1145L86.1852 81.6065L86.5904 82.3332L85.6693 82.8468L88.3061 87.5754L87.3952 88.0834L84.7584 83.3548L83.9958 83.78L83.5906 83.0533L84.3531 82.6281L83.8737 81.7684Z" fill="black"/>
</svg>
