<svg width="26" height="30" viewBox="0 0 26 30" fill="none" xmlns="http://www.w3.org/2000/svg">
<path d="M24.0797 19.4724C23.7684 17.5005 22.7824 14.5427 19.617 11.6368C19.2538 11.2735 16.6073 9.35352 16.4516 9.35352H8.87539C8.71971 9.35352 6.07323 11.2735 5.70999 11.6368C2.54458 14.5427 1.50674 17.5005 1.24728 19.4724C0.987825 21.2368 -0.0500126 27.1005 0.0018793 27.2562C0.0537712 27.4119 5.29485 28.294 5.55431 28.3978C9.91323 30.5254 15.4138 30.5254 19.7727 28.4497C19.9802 28.3459 25.3251 27.4638 25.377 27.2562C25.377 27.1005 24.3392 21.2368 24.0797 19.4724ZM11.7813 18.4346C12.404 18.7978 13.1305 18.9535 13.8051 19.0573C14.324 19.1611 14.7911 19.213 15.2581 19.4205C15.4657 19.5243 15.7251 19.6281 15.8808 19.7838C16.0884 19.9395 16.244 20.147 16.3997 20.3546C16.8148 20.9254 17.0224 21.6 17.0224 22.2746C16.9186 24.0389 15.3619 25.0768 13.857 25.3362L13.6494 26.1665C13.6494 26.3741 13.4419 26.5816 13.2343 26.5816H12.6116C12.3521 26.5816 12.1965 26.3741 12.1965 26.1665L11.9889 25.3881C11.2105 25.2843 10.5359 25.0249 9.96512 24.6616C9.34242 24.2465 8.8235 23.6757 8.51215 23.0011C8.51215 23.0011 8.20079 22.3265 8.1489 22.1189H10.3803C10.3803 22.1189 10.8473 23.1049 11.3662 23.4162C12.0927 23.7795 13.1305 23.8313 13.857 23.4681C14.5316 23.1568 14.6873 22.7416 14.6873 22.4303C14.7392 21.9113 14.324 21.2886 13.6494 20.9254C12.9748 20.5103 12.1965 20.3546 11.47 20.1989C10.1208 19.8876 8.97917 19.6281 8.51215 18.1232C8.09701 16.7741 8.66782 15.3211 9.96512 14.5946C10.4321 14.3351 10.9511 14.1276 11.5219 14.0238L11.7294 13.0897C11.7294 12.8822 11.8851 12.6746 12.1446 12.6746H12.8192C13.0267 12.6746 13.2343 12.8303 13.2343 13.0897L13.4419 13.9719C14.2203 14.0757 14.8948 14.3351 15.4657 14.6984C16.244 15.2173 17.1781 17.0335 17.23 17.1373H15.0505C14.9467 16.7222 14.6873 16.307 14.2721 16.0476C13.4938 15.5286 12.4559 15.4768 11.5738 15.8919C10.8992 16.2032 10.7435 16.6184 10.7435 16.9297C10.7435 17.4486 11.1067 18.0714 11.7813 18.4346Z" fill="black"/>
<path d="M16.1921 8.57483H9.13476C9.08287 8.57483 9.03097 8.52294 9.08287 8.47105C9.34232 8.10781 9.44611 7.74456 9.44611 7.32943C9.44611 7.01808 9.29043 6.81051 9.08287 6.55105C9.03097 6.49916 9.08287 6.44727 9.13476 6.44727H16.1921C16.2439 6.44727 16.2958 6.55105 16.2439 6.55105C16.0364 6.81051 15.9326 7.01808 15.8807 7.32943C15.8288 7.74456 15.9845 8.10781 16.2439 8.47105C16.2958 8.47105 16.2439 8.57483 16.1921 8.57483Z" fill="black"/>
<path d="M18.9423 2.29619C18.8904 1.93295 18.6309 1.6216 18.2158 1.51781C18.112 1.46592 17.5412 1.31024 16.8666 1.41403C16.659 0.998893 16.3477 0.479974 15.7769 0.272407C15.3098 0.116731 14.8428 0.168623 14.3239 0.428082C14.1682 0.272407 13.9607 0.168623 13.7012 0.0648392C13.4417 0.0129473 13.0785 -0.0389446 12.6115 0.220515C12.1444 -0.0389446 11.7812 -0.0389445 11.5217 0.0648392C11.2623 0.116731 11.0547 0.272407 10.899 0.428082C10.3801 0.168623 9.91309 0.116731 9.44607 0.272407C8.87526 0.479974 8.56391 0.947001 8.40823 1.41403C7.73364 1.31024 7.16283 1.51781 7.05904 1.51781C6.6958 1.67349 6.43634 1.93295 6.33255 2.29619C6.22877 2.81511 7.9931 5.20214 8.25255 5.4097C8.40823 5.51349 8.56391 5.61727 8.77147 5.61727H16.5034C16.7109 5.61727 16.8666 5.56538 17.0223 5.4097C17.2817 5.15024 19.0461 2.81511 18.9423 2.29619Z" fill="black"/>
</svg>
