<svg width="207" height="213" viewBox="0 0 207 213" fill="none" xmlns="http://www.w3.org/2000/svg">
<path fill-rule="evenodd" clip-rule="evenodd" d="M103.214 1L170.464 69.1667C192.23 84.0726 206.006 106.117 206.006 130.713C206.006 175.607 160.114 212 103.503 212C46.8921 212 1 175.607 1 130.713C1 106.831 13.9867 85.3552 34.6653 70.4833L103.214 1Z" fill="#B6B6B6" stroke="black"/>
<path fill-rule="evenodd" clip-rule="evenodd" d="M103.503 154.455C103.503 154.455 111.89 154.036 116.431 151.008C120.973 147.981 126.881 138.87 126.881 138.87C126.881 138.87 111.677 146.662 103.503 146.662C95.3283 146.662 80.125 138.87 80.125 138.87C80.125 138.87 86.6797 148.297 90.7471 151.008C94.8145 153.72 103.503 154.455 103.503 154.455Z" fill="white" stroke="black"/>
<path fill-rule="evenodd" clip-rule="evenodd" d="M58.3428 102.903L81.1255 108.392C82.0228 110.042 82.5228 111.877 82.5228 113.809C82.5228 121.028 75.545 126.881 66.9375 126.881C58.33 126.881 51.3523 121.028 51.3523 113.809C51.3523 109.254 54.1303 105.243 58.3428 102.903Z" fill="white" stroke="black"/>
<path fill-rule="evenodd" clip-rule="evenodd" d="M147.464 102.903L124.681 108.392C123.784 110.042 123.284 111.877 123.284 113.809C123.284 121.028 130.262 126.881 138.869 126.881C147.477 126.881 154.455 121.028 154.455 113.809C154.455 109.254 151.677 105.243 147.464 102.903Z" fill="white" stroke="black"/>
</svg>

