<svg width="103" height="117" viewBox="0 0 103 117" fill="none" xmlns="http://www.w3.org/2000/svg">
<path d="M1.5 28.2265L43.5 1.77274L85.5 28.2265V74.1851L43.5 97.288L1.5 74.1851V28.2265Z" fill="white" stroke="black" stroke-width="3"/>
<path d="M55.3021 61.9024C54.3206 61.1707 53.0447 60.9268 51.916 61.2683C50.8855 61.561 50.0513 62.1951 49.5605 63.1219C49.0698 64.0488 48.9226 65.0732 49.217 66.0976C49.4133 66.8293 50.1985 67.2683 50.9346 67.0244C51.6707 66.8293 52.1123 66.0488 51.867 65.3171C51.7688 65.0244 51.8179 64.7317 51.9651 64.439C52.1123 64.1463 52.3577 63.9512 52.6521 63.9025C52.8975 63.8537 53.2901 63.8537 53.6336 64.0976C54.1243 64.4878 54.2225 65.1707 54.2225 65.7073C54.2225 67.7073 52.5049 69.4146 50.4929 69.4146C48.4318 69.4146 46.7634 67.7561 46.7634 65.7073C46.7634 61.561 50.0513 58.1951 55.4493 52.6341L56.4798 51.561C62.2214 45.6585 66 41.8049 66 36.6829C66 33.7561 63.988 31.2683 61.289 30.4878H61.2399C44.2116 25.8537 39.6968 24.5854 38.4209 24.2927C38.3719 24.2439 38.2737 24.2439 38.1756 24.1951C37.6848 24.0976 37.096 24 36.5562 24C33.0229 24 30.0785 26.9268 30.0785 30.439C30.0785 32.8781 31.3544 34.1951 32.6794 34.7317C32.7775 34.7805 32.8757 34.8293 32.9738 34.8293H33.0229C33.0229 34.8293 33.0229 34.8293 33.072 34.8293C34.7895 35.3171 55.6947 41.0244 55.94 41.0732C55.9891 41.0732 56.0382 41.0732 56.0382 41.0732C56.7252 41.2683 57.4122 41.2683 58.0992 41.0732C59.1298 40.7805 59.964 40.1463 60.4548 39.2195C60.9455 38.2927 61.0927 37.2683 60.7983 36.2439C60.602 35.5122 59.8168 35.0732 59.0807 35.3171C58.3446 35.5122 57.9029 36.2927 58.1483 37.0244C58.2465 37.3171 58.1974 37.6585 58.0502 37.9024C57.9029 38.1951 57.6576 38.3903 57.3631 38.439C57.1178 38.4878 56.7252 38.4878 56.3817 38.2439C55.891 37.8537 55.7928 37.1707 55.7928 36.6342C55.7928 34.6342 57.5104 32.9269 59.5224 32.9269C61.5834 32.9269 63.2519 34.5854 63.2519 36.6342C63.2519 40.6342 59.7677 44.1951 54.5169 49.6098L53.4864 50.6829C47.7939 56.5366 44.0153 60.3902 44.0153 65.6585C44.0153 66.439 44.1625 67.1707 44.4079 67.8537C31.5998 64.3415 27.8212 63.3171 26.6925 63.0244C26.6434 62.9756 26.5453 62.9756 26.4962 62.9268C24.8768 62.4878 23.7972 61.0244 23.7972 59.3658C23.7972 55.2195 27.0851 51.8537 32.4831 46.2927L33.5136 45.2683C35.4766 43.2683 37.145 41.561 38.5191 39.9512C39.0098 39.3659 38.9607 38.4878 38.3719 38C37.783 37.5122 36.8997 37.561 36.4089 38.1463C35.0349 39.7073 33.4155 41.4146 31.5016 43.3659L30.4711 44.3903C24.7786 50.2439 21 54.0976 21 59.3658C21 62.2439 22.9629 64.7805 25.711 65.561H25.7601C26.6434 65.8049 48.4809 71.7561 48.7263 71.8049C48.7754 71.8049 48.7754 71.8049 48.8244 71.8049C49.3642 71.9512 49.904 72 50.4929 72C54.0262 72 56.9706 69.0732 56.9706 65.561C57.0196 64.0976 56.3817 62.7317 55.3021 61.9024ZM36.6543 26.7317C36.9488 26.7317 37.3413 26.7805 37.5867 26.8293C38.2246 27.0244 48.9226 29.9025 55.4493 31.7073C54.0262 32.8781 53.0447 34.6829 53.0447 36.6829C53.0447 36.9756 53.0447 37.2195 53.0938 37.5122C39.3043 33.7561 35.2312 32.6341 33.9553 32.2927C33.9062 32.2927 33.8571 32.2439 33.8571 32.2439C33.2192 32.0488 32.8757 31.4146 32.8757 30.439C32.9248 28.439 34.6423 26.7317 36.6543 26.7317ZM53.7317 45.5122C53.5845 45.5122 53.3882 45.4634 53.241 45.4146C52.0142 44.9756 42.2977 42.3415 41.0218 42.0488C40.1876 41.8537 39.6968 41.0244 39.8931 40.2439C40.0894 39.4147 40.9237 38.9268 41.7088 39.1219C42.9847 39.4146 52.7503 42.0976 54.1734 42.5854C54.9586 42.8293 55.4002 43.7073 55.1058 44.4878C54.9586 45.1219 54.3697 45.5122 53.7317 45.5122ZM47.1559 48.0488C47.0087 48.0488 46.8124 48 46.6652 47.9512C45.7819 47.6585 38.7154 45.7073 37.783 45.5122C36.9487 45.3171 36.458 44.4878 36.6543 43.7073C36.8506 42.8781 37.6848 42.3903 38.47 42.5854C39.4024 42.8293 46.5671 44.7317 47.5976 45.122C48.3828 45.3659 48.8244 46.2439 48.53 47.0244C48.3828 47.6585 47.7939 48.0488 47.1559 48.0488ZM40.5802 54.9268C40.4329 54.9268 40.2366 54.878 40.0894 54.8293C39.157 54.5366 32.1396 52.5854 31.2072 52.3902C30.373 52.1951 29.8822 51.3658 30.0785 50.5854C30.2748 49.7561 31.1091 49.2683 31.8942 49.4634C32.8266 49.7073 39.9422 51.6098 41.0218 52C41.807 52.2439 42.2486 53.122 41.9542 53.9025C41.807 54.4878 41.2181 54.9268 40.5802 54.9268ZM47.205 52.3902C47.0578 52.3902 46.8615 52.3415 46.7143 52.2927C45.4384 51.8537 35.771 49.2195 34.4951 48.9268C33.6609 48.7317 33.1701 47.9024 33.3664 47.122C33.5627 46.2927 34.397 45.8049 35.1821 46C36.4089 46.2927 46.1745 48.9268 47.6467 49.4634C48.4318 49.7073 48.8735 50.5854 48.5791 51.3659C48.4318 52 47.843 52.3902 47.205 52.3902Z" fill="black"/>
<path d="M61.3153 102.6L61.1488 103.504L59.4935 103.267C59.2993 103.576 59.0642 103.868 58.788 104.143C58.5153 104.416 58.1861 104.66 57.8006 104.875C56.6338 105.525 55.5064 105.653 54.4184 105.258C53.4203 104.84 52.6092 104.071 51.9852 102.952C51.4183 101.935 51.1856 100.925 51.2872 99.9197C51.418 98.6302 52.1179 97.6316 53.387 96.9239C54.7142 96.1839 55.9345 96.0624 57.0481 96.5596C57.9172 96.9471 58.6409 97.6594 59.2193 98.6966C59.4894 99.181 59.6894 99.68 59.8192 100.194C60.0189 100.977 60.0237 101.703 59.8335 102.373L61.3153 102.6ZM57.4155 103.895C57.627 103.777 57.8173 103.653 57.9863 103.523C58.1534 103.39 58.2814 103.243 58.3703 103.081L57.1868 102.896L57.3476 101.981L58.7553 102.196C58.8679 101.668 58.8561 101.153 58.7199 100.652C58.587 100.149 58.4084 99.6966 58.1839 99.2941C57.6911 98.4104 57.0625 97.8285 56.2979 97.5482C55.5367 97.266 54.7553 97.3484 53.9536 97.7955C53.1416 98.2483 52.6431 98.8662 52.458 99.6492C52.2711 100.429 52.4772 101.356 53.0765 102.431C53.5807 103.335 54.209 103.928 54.9614 104.211C55.7172 104.491 56.5353 104.386 57.4155 103.895ZM60.3481 95.9807L62.3771 99.6192C62.5331 99.899 62.7049 100.103 62.8925 100.231C63.2389 100.467 63.6356 100.46 64.0825 100.211C64.7239 99.8535 65.0008 99.3235 64.9131 98.6209C64.8682 98.2435 64.6963 97.787 64.3976 97.2513L62.8966 94.5595L63.8177 94.0459L66.874 99.5267L66.0041 100.012L65.5634 99.1975C65.5601 99.4722 65.5096 99.7307 65.4121 99.9729C65.2205 100.455 64.874 100.837 64.3725 101.116C63.5912 101.552 62.9134 101.588 62.3392 101.224C62.0297 101.029 61.7446 100.699 61.4839 100.231L59.4065 96.5057L60.3481 95.9807ZM67.4748 91.8455C67.8637 91.6287 68.2921 91.5106 68.7598 91.4912C69.2257 91.4685 69.635 91.5488 69.9878 91.7323C70.3261 91.9059 70.6287 92.1598 70.8956 92.494C71.091 92.716 71.3428 93.1034 71.651 93.6561L67.6337 95.8962C67.9609 96.4428 68.3415 96.8165 68.7754 97.0173C69.2075 97.2147 69.6811 97.1697 70.1963 96.8824C70.6774 96.6142 70.9727 96.2415 71.0823 95.7644C71.1434 95.4889 71.1405 95.211 71.0736 94.9307L71.9794 94.4256C72.0678 94.6402 72.1132 94.9101 72.1156 95.2352C72.1195 95.555 72.0816 95.84 72.002 96.0902C71.8744 96.5191 71.6309 96.8965 71.2713 97.2222C71.08 97.4004 70.8445 97.5676 70.5647 97.7236C69.8824 98.1041 69.1662 98.1792 68.4161 97.9489C67.6641 97.7153 67.0389 97.1515 66.5405 96.2577C66.0496 95.3775 65.8899 94.5295 66.0612 93.7139C66.2326 92.8983 66.7037 92.2755 67.4748 91.8455ZM70.2961 93.4522C70.036 93.074 69.7711 92.8035 69.5015 92.6408C69.0017 92.3381 68.4567 92.3513 67.8665 92.6804C67.4435 92.9163 67.1743 93.2677 67.0589 93.7345C66.9416 94.198 67.0058 94.6699 67.2512 95.1502L70.2961 93.4522ZM73.7398 93.4439C73.9384 93.7357 74.1464 93.9283 74.3639 94.0217C74.7614 94.1891 75.2468 94.1131 75.8199 93.7935C76.1611 93.6032 76.4204 93.3624 76.5979 93.0711C76.7735 92.7764 76.7747 92.4739 76.6016 92.1634C76.4703 91.928 76.2664 91.8069 75.9898 91.8001C75.8149 91.7993 75.5037 91.8588 75.0561 91.9786L74.2216 92.2025C73.6895 92.3471 73.2727 92.4096 72.971 92.39C72.4364 92.3616 72.0463 92.1274 71.8009 91.6873C71.5117 91.1687 71.4637 90.6454 71.6567 90.1173C71.8532 89.5874 72.267 89.1464 72.8981 88.7944C73.7238 88.3341 74.4542 88.2443 75.0894 88.5252C75.4892 88.7048 75.7846 88.9739 75.9756 89.3325L75.1056 89.8176C74.9725 89.619 74.7936 89.4706 74.5688 89.3723C74.2222 89.248 73.7879 89.3314 73.266 89.6225C72.918 89.8165 72.6907 90.0305 72.584 90.2644C72.4808 90.4964 72.4901 90.7215 72.6119 90.9399C72.745 91.1787 72.9693 91.3041 73.2846 91.3161C73.4686 91.3253 73.7118 91.2881 74.014 91.2046L74.7057 91.0134C75.457 90.8047 75.9871 90.7126 76.296 90.7371C76.7855 90.7728 77.171 91.0431 77.4526 91.548C77.7246 92.0358 77.7736 92.5609 77.5996 93.1231C77.429 93.6833 76.965 94.1746 76.2076 94.597C75.3923 95.0517 74.7112 95.1899 74.1646 95.0117C73.6195 94.8282 73.1828 94.4701 72.8545 93.9376L73.7398 93.4439ZM75.6661 85.4328L76.5975 84.9135L77.4507 86.4436L78.3258 85.9556L78.7453 86.7079L77.8702 87.1959L79.8649 90.773C79.9715 90.9641 80.1076 91.0558 80.2734 91.0484C80.366 91.0459 80.4959 90.9981 80.6631 90.9049C80.7074 90.8802 80.7552 90.8535 80.8063 90.825C80.8556 90.7931 80.9125 90.7546 80.9769 90.7098L81.3821 91.4365C81.2935 91.5261 81.195 91.6101 81.0866 91.6885C80.9816 91.7649 80.8626 91.8402 80.7295 91.9144C80.2997 92.1541 79.9471 92.2076 79.6718 92.0749C79.3946 91.9387 79.1581 91.6949 78.9621 91.3435L76.9388 87.7152L76.1968 88.129L75.7773 87.3768L76.5193 86.963L75.6661 85.4328ZM81.8971 88.8951C82.0956 89.1869 82.3037 89.3795 82.5212 89.4729C82.9187 89.6404 83.404 89.5643 83.9772 89.2447C84.3184 89.0544 84.5777 88.8136 84.7552 88.5224C84.9308 88.2277 84.932 87.9251 84.7589 87.6146C84.6276 87.3792 84.4237 87.2581 84.1471 87.2514C83.9721 87.2505 83.6609 87.31 83.2134 87.4298L82.3789 87.6537C81.8468 87.7983 81.4299 87.8608 81.1283 87.8412C80.5936 87.8128 80.2036 87.5786 79.9582 87.1385C79.669 86.6199 79.621 86.0966 79.814 85.5685C80.0104 85.0386 80.4242 84.5976 81.0554 84.2457C81.881 83.7853 82.6114 83.6955 83.2466 83.9764C83.6464 84.156 83.9419 84.4251 84.1329 84.7837L83.2629 85.2688C83.1298 85.0702 82.9509 84.9218 82.7261 84.8235C82.3795 84.6992 81.9452 84.7826 81.4232 85.0737C81.0752 85.2678 80.8479 85.4817 80.7413 85.7156C80.6381 85.9476 80.6474 86.1728 80.7691 86.3911C80.9023 86.6299 81.1265 86.7553 81.4419 86.7674C81.6259 86.7765 81.869 86.7394 82.1713 86.6558L82.863 86.4646C83.6143 86.2559 84.1444 86.1638 84.4533 86.1883C84.9427 86.224 85.3283 86.4943 85.6098 86.9992C85.8819 87.4871 85.9309 88.0121 85.7569 88.5743C85.5863 89.1345 85.1223 89.6259 84.3649 90.0482C83.5495 90.5029 82.8685 90.6411 82.3219 90.4629C81.7768 90.2794 81.3401 89.9214 81.0118 89.3888L81.8971 88.8951Z" fill="black"/>
</svg>
