<svg width="105" height="117" viewBox="0 0 105 117" fill="none" xmlns="http://www.w3.org/2000/svg">
<path d="M1.5 28.2265L43.5 1.77274L85.5 28.2265V74.1851L43.5 97.288L1.5 74.1851V28.2265Z" fill="white" stroke="black" stroke-width="3"/>
<path d="M42.604 53.6169H26.0251C25.762 53.624 25.5029 53.683 25.2628 53.7907C25.0227 53.8984 24.8065 54.0525 24.6265 54.2442C24.4466 54.4358 24.3065 54.6612 24.2145 54.9072C24.1225 55.1532 24.0803 55.415 24.0904 55.6774V64.6614C24.0812 64.9236 24.1241 65.185 24.2164 65.4306C24.3088 65.6762 24.4489 65.9012 24.6286 66.0927C24.8084 66.2841 25.0243 66.4383 25.2639 66.5463C25.5036 66.6543 25.7623 66.714 26.0251 66.722H42.604C42.8669 66.714 43.1255 66.6543 43.3652 66.5463C43.6048 66.4383 43.8207 66.2841 44.0005 66.0927C44.1803 65.9012 44.3204 65.6762 44.4127 65.4306C44.5051 65.185 44.5479 64.9236 44.5387 64.6614V55.6774C44.5488 55.415 44.5066 55.1532 44.4146 54.9072C44.3226 54.6612 44.1826 54.4358 44.0026 54.2442C43.8227 54.0525 43.6064 53.8984 43.3663 53.7907C43.1263 53.683 42.8672 53.624 42.604 53.6169ZM42.604 64.682H26.0251V55.6362L42.604 55.6774V64.682ZM77.9719 32.1254C77.765 29.1207 76.4278 26.3049 74.2282 24.2419C72.0286 22.179 69.129 21.0211 66.1101 21.0003C63.0911 20.9794 60.1757 22.0971 57.9477 24.1295C55.7197 26.1619 54.3436 28.959 54.095 31.9606H22.1489C21.3106 31.9892 20.5178 32.3478 19.9437 32.9578C19.3696 33.5679 19.0609 34.3798 19.0851 35.2162V37.0089L16.0833 44.4268C16.0261 44.5615 15.998 44.7065 16.0006 44.8527C15.9849 45.9827 16.2603 47.0977 16.8004 48.0911C17.3404 49.0845 18.1271 49.9229 19.0851 50.5261V76.6263C19.0851 76.9906 19.2302 77.34 19.4884 77.5977C19.7466 77.8553 20.0969 78 20.4621 78H64.8906C65.2558 78 65.606 77.8553 65.8642 77.5977C66.1225 77.34 66.2676 76.9906 66.2676 76.6263V50.5261C67.2256 49.9213 68.0122 49.0816 68.5522 48.0872C69.0922 47.0927 69.3676 45.9767 69.352 44.8458C69.3516 44.7101 69.3284 44.5754 69.2831 44.4475C71.9284 43.6992 74.2353 42.0665 75.8172 39.8231C77.3992 37.5797 78.1599 34.8619 77.9719 32.1254ZM21.0404 35.2162C21.0253 34.9007 21.1353 34.592 21.3466 34.3568C21.5579 34.1216 21.8535 33.9788 22.1695 33.9593H54.0743C54.1335 34.7247 54.272 35.482 54.4874 36.219H21.0198L21.0404 35.2162ZM59.899 75.7883C59.899 75.8502 59.899 75.8914 59.837 75.8914H49.3237C49.3237 75.8914 49.2618 75.857 49.2618 75.7883V60.1419H59.899V75.7883ZM59.899 58.1295H49.2618V55.7461C49.2618 55.6843 49.3031 55.6362 49.3237 55.6362H59.837C59.837 55.6362 59.899 55.6843 59.899 55.7461V58.1295ZM64.3467 75.9875H61.8268C61.8268 75.9326 61.8268 75.8708 61.8268 75.809V55.7461C61.8454 55.2007 61.6463 54.6702 61.2733 54.271C60.9002 53.8718 60.3837 53.6366 59.837 53.6169H49.3237C48.7783 53.6348 48.2621 53.8674 47.888 54.2638C47.5139 54.6602 47.3122 55.1881 47.3271 55.7324V75.7883C47.3235 75.8478 47.3235 75.9075 47.3271 75.9669H21.0198V51.2885C21.3803 51.3601 21.7469 51.3969 22.1145 51.3984C23.1545 51.3785 24.1716 51.0904 25.0669 50.562C25.9621 50.0336 26.705 49.2829 27.2231 48.3831C27.7344 49.307 28.4864 50.0761 29.3997 50.6088C30.3129 51.1416 31.3535 51.4184 32.4114 51.41C33.4693 51.4016 34.5053 51.1082 35.4099 50.5609C36.3144 50.0136 37.054 49.2327 37.5505 48.3007C38.0441 49.2352 38.782 50.0191 39.6861 50.5691C40.5901 51.1191 41.6266 51.4147 42.6854 51.4245C43.7443 51.4344 44.786 51.1581 45.7002 50.6251C46.6144 50.092 47.3669 49.322 47.8779 48.3968C48.3893 49.311 49.1369 50.0717 50.0429 50.5999C50.949 51.1281 51.9803 51.4045 53.0297 51.4003C54.079 51.3961 55.1081 51.1114 56.0099 50.576C56.9116 50.0405 57.6531 49.2738 58.1571 48.3556C58.6737 49.2664 59.4202 50.0265 60.3224 50.5603C61.2247 51.0941 62.2513 51.383 63.3001 51.3984C63.6655 51.3968 64.0298 51.36 64.388 51.2885L64.3467 75.9875ZM65.5791 48.6235C65.2979 48.8372 64.9841 49.0041 64.6496 49.118C64.2122 49.2952 63.7446 49.3861 63.2726 49.3859C62.1244 49.3219 61.0475 48.8099 60.2745 47.9604C59.5016 47.1109 59.0947 45.9921 59.1416 44.8458C59.1417 44.5811 59.0367 44.327 58.8497 44.1392C58.6626 43.9513 58.4087 43.8448 58.1433 43.843C57.8816 43.8502 57.6333 43.9604 57.4527 44.1496C57.2721 44.3388 57.1739 44.5915 57.1794 44.8527C57.232 45.4196 57.1673 45.9912 56.9896 46.5323C56.8118 47.0733 56.5247 47.5721 56.146 47.998C55.7672 48.4239 55.3049 48.7678 54.7877 49.0083C54.2704 49.2489 53.7092 49.381 53.1387 49.3965C52.5682 49.4121 52.0006 49.3107 51.471 49.0986C50.9413 48.8866 50.4609 48.5684 50.0595 48.1638C49.658 47.7591 49.344 47.2766 49.137 46.7461C48.9299 46.2156 48.8341 45.6483 48.8555 45.0794C48.852 44.8236 48.7486 44.5793 48.5673 44.3985C48.386 44.2176 48.1411 44.1145 47.8848 44.1109C47.6312 44.1212 47.391 44.2267 47.2122 44.4063C47.0334 44.5859 46.9294 44.8264 46.9209 45.0794C46.9202 46.1896 46.4904 47.2568 45.721 48.059C44.9516 48.8611 43.9017 49.3364 42.7899 49.3859C41.6599 49.3362 40.5931 48.8523 39.8127 48.0354C39.0324 47.2186 38.5992 46.1322 38.6039 45.0038C38.6075 44.9512 38.6075 44.8984 38.6039 44.8458C38.6085 44.7164 38.587 44.5873 38.5407 44.4663C38.4944 44.3452 38.4243 44.2347 38.3344 44.1412C38.2445 44.0477 38.1368 43.9731 38.0175 43.9219C37.8982 43.8707 37.7698 43.8439 37.64 43.843H37.5367C37.2756 43.852 37.0283 43.9627 36.8481 44.1515C36.6679 44.3403 36.5691 44.592 36.5728 44.8527C36.6177 46.0046 36.2043 47.1275 35.4227 47.9767C34.6412 48.8259 33.5549 49.3324 32.4006 49.3859C31.3079 49.3295 30.2765 48.8652 29.5112 48.0852C28.7459 47.3051 28.3027 46.2665 28.2696 45.1755C28.2557 44.9361 28.1513 44.7109 27.9776 44.5452C27.8038 44.3795 27.5736 44.2857 27.3332 44.2826C27.2037 44.2799 27.0749 44.3029 26.9544 44.3502C26.8338 44.3976 26.7239 44.4684 26.631 44.5585C26.5381 44.6486 26.4641 44.7562 26.4133 44.8751C26.3624 44.994 26.3358 45.1218 26.3349 45.2511C26.2862 46.3284 25.8353 47.3486 25.0709 48.1112C24.3065 48.8737 23.2839 49.3235 22.204 49.3722C21.7309 49.3696 21.2629 49.2739 20.827 49.0905C20.499 48.9825 20.1918 48.82 19.9182 48.6098C19.3365 48.2031 18.8556 47.6694 18.512 47.0492C18.1684 46.4291 17.9711 45.7389 17.9353 45.0313L20.6893 38.2658H55.2517C56.245 40.2589 57.7756 41.9362 59.6717 43.1095C61.5677 44.2827 63.7541 44.9054 65.9853 44.9076C66.4341 44.9078 66.8824 44.8802 67.3278 44.8252L67.4105 45.0313C67.3974 45.7292 67.2257 46.4151 66.9085 47.0373C66.5913 47.6595 66.1367 48.2019 65.5791 48.6235ZM68.6635 42.8677C68.0232 43.0463 67.3652 43.1545 66.7013 43.1905C66.481 43.1905 66.2538 43.1905 66.0128 43.1905C63.8578 43.2053 61.7535 42.5387 60.002 41.2861C58.2505 40.0336 56.9418 38.2597 56.2637 36.219C56.0111 35.4883 55.8492 34.7294 55.7818 33.9593C55.7083 33.2951 55.7083 32.6248 55.7818 31.9606C55.9641 30.0967 56.6545 28.3183 57.7781 26.8182C58.9017 25.3181 60.4156 24.1535 62.1556 23.4509C63.8956 22.7482 65.7952 22.5343 67.6484 22.8324C69.5016 23.1304 71.2376 23.929 72.6682 25.1416C74.0987 26.3541 75.169 27.9343 75.7632 29.7106C76.3573 31.487 76.4525 33.3918 76.0384 35.2183C75.6244 37.0448 74.7169 38.7234 73.4143 40.0719C72.1118 41.4203 70.464 42.3872 68.6497 42.8677H68.6635ZM71.445 34.2478L66.302 39.3785C66.2365 39.4419 66.1488 39.4773 66.0576 39.4773C65.9663 39.4773 65.8787 39.4419 65.8131 39.3785L60.6632 34.2478C60.0287 33.6156 59.6718 32.758 59.6712 31.8634C59.6705 30.9688 60.0262 30.1106 60.6598 29.4776C61.2934 28.8446 62.1531 28.4886 63.0499 28.4879C63.9466 28.4873 64.8068 28.8421 65.4414 29.4742L65.8131 29.8451C65.8451 29.8772 65.8832 29.9028 65.9252 29.9202C65.9671 29.9377 66.0121 29.9466 66.0576 29.9466C66.103 29.9466 66.148 29.9377 66.19 29.9202C66.2319 29.9028 66.27 29.8772 66.302 29.8451L66.6738 29.4742C66.9902 29.1616 67.3653 28.9143 67.7775 28.7464C68.1898 28.5785 68.6311 28.4932 69.0764 28.4954C69.5217 28.4976 69.9622 28.5873 70.3727 28.7594C70.7833 28.9315 71.1558 29.1825 71.4691 29.4982C71.7824 29.8139 72.0303 30.1881 72.1986 30.5993C72.367 31.0106 72.4525 31.4509 72.4502 31.8951C72.448 32.3394 72.3581 32.7788 72.1856 33.1883C72.0131 33.5979 71.7615 33.9696 71.445 34.2821V34.2478Z" fill="black"/>
<path d="M60.1266 101.225C60.3883 101.638 60.6821 101.928 61.0079 102.095C61.6234 102.405 62.3576 102.322 63.2105 101.846C63.5926 101.633 63.9101 101.385 64.1631 101.1C64.6525 100.55 64.7449 100.002 64.4405 99.4563C64.2122 99.0469 63.9216 98.8266 63.5687 98.7953C63.2143 98.7693 62.7256 98.8473 62.1025 99.0292L60.9557 99.3668C60.2067 99.5877 59.6436 99.6848 59.2665 99.658C58.6138 99.6105 58.1134 99.2746 57.7653 98.6503C57.3886 97.9747 57.3131 97.29 57.5389 96.5961C57.7647 95.9022 58.3057 95.3165 59.1621 94.839C59.9502 94.3995 60.7254 94.2177 61.4877 94.2935C62.2516 94.364 62.8666 94.8171 63.3327 95.653L62.3757 96.1866C62.1001 95.8126 61.8187 95.5647 61.5317 95.443C61.0024 95.2238 60.3659 95.3216 59.6222 95.7363C59.0217 96.0711 58.6606 96.438 58.5386 96.837C58.4167 97.2359 58.449 97.6026 58.6354 97.9369C58.8409 98.3054 59.1447 98.4893 59.5469 98.4886C59.8091 98.4856 60.3406 98.3681 61.1416 98.1361L62.3299 97.7888C62.9029 97.6213 63.3837 97.5612 63.7723 97.6083C64.4459 97.6934 64.9691 98.0703 65.342 98.739C65.8062 99.5714 65.8346 100.336 65.427 101.033C65.0229 101.728 64.42 102.299 63.6183 102.746C62.6835 103.267 61.8185 103.437 61.0233 103.254C60.2301 103.074 59.6122 102.576 59.1696 101.758L60.1266 101.225ZM63.4753 92.6484L64.3965 92.1348L65.9603 94.9391C66.0245 94.541 66.1123 94.2372 66.2235 94.0276C66.4119 93.6676 66.7278 93.3639 67.1713 93.1166C67.9662 92.6733 68.6603 92.6508 69.2536 93.049C69.5764 93.267 69.8882 93.6456 70.1887 94.1846L72.1492 97.7003L71.2025 98.2283L69.2763 94.7739C69.0518 94.3714 68.836 94.1048 68.629 93.9742C68.2944 93.7672 67.8969 93.7921 67.4363 94.049C67.0542 94.2621 66.7811 94.5865 66.6172 95.0223C66.4532 95.4581 66.5748 96.0411 66.9819 96.7712L68.6028 99.6779L67.6817 100.192L63.4753 92.6484ZM75.3595 95.1319C75.9702 94.7914 76.2597 94.3281 76.228 93.7419C76.1979 93.1505 76.0249 92.5716 75.7091 92.0052C75.4237 91.4935 75.1097 91.1229 74.7672 90.8935C74.2263 90.5332 73.6386 90.53 73.004 90.8838C72.4411 91.1977 72.1516 91.641 72.1354 92.2135C72.1192 92.7861 72.2805 93.376 72.6191 93.9833C72.9444 94.5667 73.3435 94.9815 73.8162 95.2277C74.289 95.474 74.8034 95.442 75.3595 95.1319ZM72.5816 90.0661C73.2878 89.6723 74.0161 89.5748 74.7665 89.7735C75.5169 89.9723 76.1471 90.5288 76.6569 91.4432C77.1497 92.3268 77.3418 93.1767 77.2335 93.993C77.1251 94.8093 76.6189 95.4695 75.7148 95.9737C74.9609 96.3941 74.2204 96.4738 73.4934 96.2128C72.7645 95.9484 72.1604 95.3863 71.6809 94.5265C71.1673 93.6054 70.9919 92.7416 71.1549 91.9351C71.3179 91.1286 71.7935 90.5056 72.5816 90.0661ZM81.3173 91.7761C81.7472 91.5364 82.0039 91.1584 82.0873 90.6423C82.1722 90.1209 82.0149 89.5019 81.6154 88.7855C81.3718 88.3488 81.0995 88.0087 80.7982 87.7652C80.2226 87.2945 79.6176 87.2361 78.983 87.59C78.345 87.9457 78.0862 88.5082 78.2066 89.2775C78.2706 89.689 78.4491 90.1575 78.7421 90.6829C78.978 91.106 79.2418 91.4307 79.5336 91.6571C80.0882 92.0903 80.6828 92.1299 81.3173 91.7761ZM76.2359 88.2699L77.1314 87.7705L77.5366 88.4972C77.582 88.1454 77.6758 87.8404 77.818 87.5822C78.0143 87.2043 78.3223 86.8984 78.742 86.6644C79.3629 86.3182 80.0231 86.263 80.7228 86.4991C81.4205 86.7317 82.0157 87.2898 82.5085 88.1734C83.1743 89.3675 83.3378 90.3945 82.9988 91.2544C82.7838 91.7992 82.4136 92.2181 81.8882 92.511C81.4754 92.7412 81.0787 92.8439 80.6981 92.8191C80.4773 92.8081 80.1968 92.7342 79.8566 92.5974L81.4176 95.3966L80.4964 95.9103L76.2359 88.2699Z" fill="black"/>
</svg>
